<svg xmlns="http://www.w3.org/2000/svg" viewBox="0 0 163.85 69.6"><defs><style>.cls-1{fill:#595757;}.cls-2{fill:#2932e1;}.cls-3{fill:#fff;}.cls-4{fill:#e10602;}</style></defs><g id="レイヤー_2" data-name="レイヤー 2"><g id="レイヤー_1-2" data-name="レイヤー 1"><path class="cls-1" d="M118.47,58.44h1.16v7.39a6,6,0,0,1-.29,2.32,1.57,1.57,0,0,1-.87,1,3,3,0,0,1-1.6.43,5,5,0,0,1-1.45-.29,13.21,13.21,0,0,1-1.45-.87l.58-.87a13.21,13.21,0,0,0,1.45.87,1.29,1.29,0,0,0,.73.15,2.13,2.13,0,0,0,.87-.29,1.51,1.51,0,0,0,.58-.73,7.9,7.9,0,0,0,.14-1.88Z"/><path class="cls-1" d="M126.88,58.44h-.29l-5.37,11h1.31l1.74-3.63h4.78l1.74,3.63H132Zm-2.18,6.38,1.89-3.92,1.88,3.92Z"/><path class="cls-1" d="M140.07,59.6a3,3,0,0,0-1.59-1,16.32,16.32,0,0,0-2.61-.14h-2.18v11h1.16V64.38h.87a20.05,20.05,0,0,0,2.9-.14,2.82,2.82,0,0,0,1.6-1A3,3,0,0,0,140.07,59.6Zm-.87,2.9a1.43,1.43,0,0,1-.87.72,3.57,3.57,0,0,1-1.74.15h-1.88V59.6h2a5.57,5.57,0,0,1,1.59.14,1.51,1.51,0,0,1,.73.58,2.15,2.15,0,0,1,.29,1A1.15,1.15,0,0,1,139.2,62.5Z"/><path class="cls-1" d="M147.47,58.44h-.29l-5.22,11h1.3L145,65.83h4.79l1.74,3.63h1.16Zm-2,6.38,1.88-3.92,1.89,3.92Z"/><path class="cls-1" d="M154.43,69.46v-11h.29l7.39,8.41V58.44h1.16v11H163l-7.39-8.27v8.27Z"/><path class="cls-2" d="M98.31,36.11A53.12,53.12,0,0,1,88,25.81C82.8,18,75.55,21.17,73.08,25.09a32.37,32.37,0,0,1-6.81,7.25c-.58.58-7.83,4.49-6.24,11.6s7.4,7,7.4,7a39,39,0,0,0,9.13-.58,19.5,19.5,0,0,1,9.14.29s11.45,3.77,14.64-3.48C103.24,39.88,98.31,36.11,98.31,36.11ZM104.69,22c0-1.59-1.3-6.38-6.38-6.38s-5.8,4.5-5.8,7.69S92.8,30.6,99,30.6C105.27,30.45,104.69,23.64,104.69,22ZM88,16.39c4.2.58,7-3.92,7.54-7.25a7.56,7.56,0,0,0-5.22-7.83c-3-.73-6.67,3.91-7.11,7.1C82.8,12.18,83.67,16,88,16.39ZM74.53,16c3.19,0,5.8-3.48,5.8-8s-2.75-8-5.8-8-5.8,3.48-5.8,8S71.34,16,74.53,16ZM63.8,27.12c5.8-1.16,4.93-7.83,4.79-9.28-.29-2.32-3-6.24-6.67-5.8-4.64.29-5.37,6.81-5.37,6.81C56,21.75,58.15,28.28,63.8,27.12Z"/><path class="cls-3" d="M75.4,43.94H72.5a3.25,3.25,0,0,1-2.75-2.47,5.83,5.83,0,0,1,.14-2.75,3.6,3.6,0,0,1,2.32-2H75.4Zm0-14.79v4.78H71.49a6.39,6.39,0,0,0-5.37,4.64,8.74,8.74,0,0,0,.58,5.08,6.41,6.41,0,0,0,4.64,3h7.4V29.15Z"/><path class="cls-3" d="M80.62,34.22V43.5s.15,2.32,3.48,3.19h8.56V34.37H89v9.28H85.55s-1.16-.15-1.3-1V34.37Z"/><path class="cls-4" d="M128.18,34.08v4.35h-15.8V34.08Zm0,12s-.29.58-.72.58H112.38V42.2h16Zm5.22-17.83V24.36H107v3.92h11.31l-1,2.32h-9.57V50.17H130.5a2.11,2.11,0,0,0,2.18-2V30.6h-9.57l.87-2.47Z"/><path class="cls-4" d="M155.73,42.2,152,44.08l-3.48-1.88ZM142,42.34l6.67,3.77a9.6,9.6,0,0,1-2.76,1.31h-4.49v2.9h6.09a21.94,21.94,0,0,0,5.07-2A10.17,10.17,0,0,0,156.6,50h6.82v-2.9H158.2a6.6,6.6,0,0,1-2.61-1l7.83-4.35V39.44H142Zm14.5-7.68s-.44.58-.87.58h-7.83V32.63h8.7Zm4.2-4.93V28.28h-4.2v1.45H147.9V28.28H144v1.45h-2.61v2.9H144v5.51h14.5a2.35,2.35,0,0,0,2.32-2V32.63h3v-2.9Zm2.76-5.37H153V22.48h-4.79v1.88H136.45V50.17h4.35V27.7h22.76Z"/><path class="cls-4" d="M48.72,50.17h5.8V30.74h-5.8Zm0-26.53v4.93h5.8V23.64Z"/><path class="cls-4" d="M40.46,46.4H32.63a2.52,2.52,0,0,1-1.45-1.3,2.39,2.39,0,0,1,0-1.45,3.06,3.06,0,0,1,1.59-1.45h7.69Zm-1-15.8H27.12v4.06H37.85s2.61.58,2.61,2.17v1.45H30.74a6.38,6.38,0,0,0-5.07,4.79,9.28,9.28,0,0,0,.14,3.48A6.07,6.07,0,0,0,30.45,50H46V36.25A7.58,7.58,0,0,0,39.44,30.6Z"/><path class="cls-4" d="M17.4,32.92a3.4,3.4,0,0,1-2.32,1.45H5.94V28.71h9.14a3.23,3.23,0,0,1,2.61,1.45A3.67,3.67,0,0,1,17.4,32.92ZM15.52,45.53H5.94v-5.8h9.72a3.54,3.54,0,0,1,2.47,1.89,4,4,0,0,1-.44,2.61A3.08,3.08,0,0,1,15.52,45.53Zm8.84-2.17A6.56,6.56,0,0,0,20.16,37c3.62-1.89,3.19-6.53,3.19-6.53-.44-7.25-9.43-6.81-9.43-6.81H0V50.46H15.81C25.09,50.46,24.36,43.36,24.36,43.36Z"/></g></g></svg>